<svg version="1.1" xmlns="http://www.w3.org/2000/svg" xmlns:xlink="http://www.w3.org/1999/xlink" width="101.99938" height="102.65884" viewBox="0,0,101.99938,102.65884"><g transform="translate(-194.88589,-129.85025)"><g data-paper-data="{&quot;isPaintingLayer&quot;:true}" stroke-miterlimit="10" stroke-dasharray="" stroke-dashoffset="0" style="mix-blend-mode: normal"><path d="M222.74369,199.59369c0.6,0.8 3.3,2 -0.2,4.2c-3.6,2.1 -12.7,5 -21.6,-2.9c-9.6,-8.6 -4.5,-20.3 -0.1,-20.7c4.3,-0.4 2.6,6.6 5.7,14.4c4.4,11.3 15.6,4.2 16.2,5z" fill="#d0d0d0" fill-rule="evenodd" stroke="#001026" stroke-width="1.2" stroke-linecap="round" stroke-linejoin="round"/><path d="M227.15,209.7c-0.7,0.9 -2.7,4.4 -7.5,7.4c-3.3,2.1 -11.8,-1.4 -11.8,-1.4c0.9,9.2 -6.6,9 -8,6c-1.1,-2.4 -0.9,-12.7 1.3,-13.5c3.4,-1.2 8,0.8 12.1,0.8c1.2,0 2.5,-2.6 5.3,-5.4c2,-2 4.6,-5.7 8.8,-3.1c3.6,2.3 1.7,6.5 -0.2,9.2z" fill="#d0d0d0" fill-rule="evenodd" stroke="#001026" stroke-width="1.2" stroke-linecap="round" stroke-linejoin="round"/><path d="M244.35,188.5c0.3,2.2 0.5,10.6 2.9,11.9c2.3,1.2 9.3,-0.8 9.7,4.1c0.4,4.8 -6.1,4.9 -11.5,3.4c-7,-1.9 -10.2,-12.6 -6.2,-19.2c1.5,-2.3 4.8,-2.5 5.1,-0.2z" fill="#d0d0d0" fill-rule="evenodd" stroke="#001026" stroke-width="1.2" stroke-linecap="round" stroke-linejoin="round"/><path d="M241.85,211.5c0.6,3.3 -4.2,10.8 -4.2,10.8c0,0 6,4.1 2.2,8.3c-2.8,3.1 -5,0.6 -12.3,-6.5c-1.1,-1.1 -1.1,-2.7 -0.2,-3.8c2.1,-2.4 5.1,-6.5 3.1,-8.4c-2.8,-2 -6,-4 -8,-5.2c-8.2,-4.8 -2.2,-10.7 2.3,-19c2.4,-4.5 3.6,-3.3 9.6,-2.1c3.4,0.5 5.4,0.8 7.6,0.7c3.3,-0.1 2.7,4.7 1.8,7.2c0,0 -1.4,3.7 -2.7,5.6c-1.6,2.4 -3.4,4.8 -4.6,5.7c0,0 4.7,3.5 5.4,6.7z" fill="#d0d0d0" fill-rule="evenodd" stroke="#001026" stroke-width="1.2" stroke-linecap="round" stroke-linejoin="round"/><path d="M226.55,191.7c-2.2,1 -6.3,-0.8 -7.4,-0.6c-0.3,0.1 -2.1,5.3 -3.2,8.4c-1.5,4.4 -8.3,3.1 -8.7,-1.5c-0.3,-4.3 3.6,-12.6 4.9,-14.1c2.9,-3.5 12.7592,-0.6917 19.3463,1.0565" fill="#d0d0d0" fill-rule="evenodd" stroke="#001026" stroke-width="1.2" stroke-linecap="round" stroke-linejoin="round"/><path d="M258.28,130.34948c0.3,-0.2 -0.37473,-0.1 -0.27473,0.3l3.48105,13.04948c0,0 1.40737,2.05684 3.30737,5.35684c3.2,5.5 0.06947,0.6021 0.06947,0.6021c0,0 7.1,6.79895 8.3,12.49895c1.2,5.7 0.03053,19.14316 -18.76947,22.84316c-18.8,3.7 -33.9,-1.4 -41,-12.8c-7.1,-11.4 3.21894,-24.11894 2.61894,-23.31894l-1.80632,-14.08211c-0.1,-0.4 0.4,-0.11263 0.8,0.08737l12.68737,2.61368c0,0 4.5,-1.7 9.2,-1.9c2.8,-0.2 11.66105,0.88106 13.96105,1.28106z" fill="#d0d0d0" fill-rule="evenodd" stroke="#001026" stroke-width="1.2" stroke-linecap="butt" stroke-linejoin="miter"/><path d="M272.14469,166.15496c0,3.10762 -2.65918,5.62684 -5.93945,5.62684c-3.28026,0 -5.93944,-2.51922 -5.93944,-5.62683c0,-3.10762 2.65918,-5.62684 5.93944,-5.62684c3.28026,0 5.93945,2.51922 5.93945,5.62684z" fill="#ffd8d8" fill-rule="nonzero" stroke="none" stroke-width="0" stroke-linecap="butt" stroke-linejoin="miter"/><path d="M230.36844,167.73836c0,3.85988 -3.30288,6.98891 -7.3772,6.98891c-4.07432,0 -7.37719,-3.12903 -7.37719,-6.98891c0,-3.85988 3.30288,-6.98892 7.3772,-6.98892c4.07432,0 7.3772,3.12904 7.3772,6.98892z" fill="#ffd8d8" fill-rule="nonzero" stroke="none" stroke-width="0" stroke-linecap="butt" stroke-linejoin="miter"/><path d="M240.26716,172.95929c0,-0.4 1.45893,-0.24597 1.67972,-0.14597c1.04874,0.7 1.43478,0.21721 4.7466,0.61721c1.60229,-0.15403 1.98232,-0.50636 2.81028,-0.80636c0.27599,-0.1 1.74982,0.17299 1.63943,0.67299c-0.36176,2.62628 -0.2902,2.91671 -1.30679,4.48183c-0.73152,1.12623 -1.77586,2.19105 -4.20115,1.93997c-5.02293,-1 -5.53368,-1.85967 -5.36809,-6.75967z" fill="#ffd8d8" fill-rule="evenodd" stroke="#001026" stroke-width="1.2" stroke-linecap="round" stroke-linejoin="round"/><path d="M236.45297,159.16382c0,1.62097 -1.53307,2.93503 -3.42421,2.93503c-1.89113,0 -3.42421,-1.31406 -3.42421,-2.93503c0,-1.62097 1.53307,-2.93503 3.42421,-2.93503c1.89113,0 3.42421,1.31406 3.42421,2.93503z" fill="#001026" fill-rule="nonzero" stroke="none" stroke-width="0" stroke-linecap="butt" stroke-linejoin="miter"/><path d="M261.09545,158.20079c0,1.54087 -1.31487,2.79001 -2.93685,2.79001c-1.62198,0 -2.93685,-1.24913 -2.93685,-2.79001c0,-1.54087 1.31487,-2.79 2.93685,-2.79c1.62198,0 2.93685,1.24912 2.93685,2.79z" fill="#001026" fill-rule="nonzero" stroke="none" stroke-width="0" stroke-linecap="butt" stroke-linejoin="miter"/><path d="M205.6805,169.89499c0,-0.69096 0.63655,-0.74535 0.73678,-0.74964c2.7229,-2.6224 5.56203,-3.52458 9.41111,-3.52458c0,0 0.75,0 0.75,0.75c0,0.75 -0.75,0.75 -0.75,0.75c-3.58108,0 -6.05998,0.79064 -8.57388,3.30454l-0.82402,0.21967c0,0 -0.75,0 -0.75,-0.75z" fill="#001026" fill-rule="nonzero" stroke="none" stroke-width="0.5" stroke-linecap="butt" stroke-linejoin="miter"/><path d="M210.01175,176.00532c-0.53033,-0.53033 0,-1.06066 0,-1.06066l0.5377,-0.53253c1.84081,-2.7835 3.6429,-5.24581 7.33474,-5.26714c0,0 0.75,0 0.75,0.75c0,0.75 -0.75,0.75 -0.75,0.75c-3.26746,-0.02326 -4.56258,2.3167 -6.17473,4.71812l-0.63705,0.64221c0,0 -0.53033,0.53033 -1.06066,0z" fill="#001026" fill-rule="nonzero" stroke="none" stroke-width="0.5" stroke-linecap="butt" stroke-linejoin="miter"/><path d="M281.26296,170.13164c-0.53033,0.53033 -1.06066,0 -1.06066,0l-0.45134,-0.47971c-1.0021,-0.33404 -1.36719,-0.97833 -2.28469,-1.43268c-1.91802,-0.9498 -4.06672,-0.80479 -6.13154,-0.80479c0,0 -0.75,0 -0.75,-0.75c0,-0.75 0.75,-0.75 0.75,-0.75c2.28942,0 4.6726,-0.10917 6.79057,0.95732c1.02762,0.51745 1.33619,1.14481 2.41426,1.50417l0.7234,0.69503c0,0 0.53033,0.53033 0,1.06066z" fill="#001026" fill-rule="nonzero" stroke="none" stroke-width="0.5" stroke-linecap="butt" stroke-linejoin="miter"/><path d="M279.85158,176.51868c-0.67487,0 -0.74247,-0.60726 -0.74925,-0.72893c-2.0889,-2.02532 -4.80777,-3.76013 -7.7676,-3.67634c0,0 -0.75,0 -0.75,-0.75c0,-0.75 0.75,-0.75 0.75,-0.75c3.50502,0.06676 6.58991,1.87398 9.04718,4.33125l0.21967,0.82402c0,0 0,0.75 -0.75,0.75z" fill="#001026" fill-rule="nonzero" stroke="none" stroke-width="0.5" stroke-linecap="butt" stroke-linejoin="miter"/><path d="M249.12106,165.0492c0,1.05428 -0.92041,1.90895 -2.05579,1.90895c-1.13538,0 -2.05579,-0.85467 -2.05579,-1.90895c0,-1.05428 0.92041,-1.90894 2.05579,-1.90894c1.13538,0 2.05579,0.85466 2.05579,1.90894z" fill="#001026" fill-rule="nonzero" stroke="#001026" stroke-width="1.2" stroke-linecap="butt" stroke-linejoin="miter"/><path d="M296.88526,144.05077v0v0z" fill="#ffd8d8" fill-rule="nonzero" stroke="none" stroke-width="0" stroke-linecap="butt" stroke-linejoin="miter"/><path d="M220.55035,142.47813c-0.03634,0.01788 -0.07169,0.03702 -0.10586,0.05769l-0.12404,0.18605c0.07358,-0.0778 0.15076,-0.15936 0.2299,-0.24374zM219.06511,139.16579c0.3827,-0.18958 0.8046,-0.29042 1.20469,-0.25657c0.33999,0.02877 1.71887,-0.06438 1.94181,0.02656c2.61801,1.06794 0.24618,3.37622 -0.7724,4.59852c-0.49505,0.59406 -1.57965,2.47888 -2.66657,2.04016c-1.45657,-0.58792 -1.16059,-4.95742 -1.16059,-6.14787c0,0 0,-0.75 0.75,-0.75c0.45222,0 0.63177,0.27268 0.70306,0.4892zM219.34248,143.86775c0.0185,-0.02673 0.03838,-0.05432 0.05923,-0.0824c-0.02019,0.00016 -0.0401,0.00007 -0.05973,-0.00027c0.00032,0.02894 0.00049,0.05653 0.0005,0.08267z" fill="#ffd8d8" fill-rule="nonzero" stroke="none" stroke-width="0.5" stroke-linecap="butt" stroke-linejoin="miter"/><path d="M254.25652,139.09234c-0.17267,0.15149 -0.49052,0.32077 -0.89633,0.05023c-0.62404,-0.41603 -0.20801,-1.04006 -0.20801,-1.04006c0.38628,-0.57943 2.28096,-3.42659 2.9741,-3.4976c1.79883,-0.18429 2.89413,5.65551 1.86306,6.391c-0.40339,0.28775 -0.95083,-0.2838 -1.41138,-0.4666c-0.6803,-0.27002 -1.75783,-0.75782 -2.32145,-1.43696zM256.59147,138.84247c-0.01937,-0.11104 -0.03621,-0.22695 -0.05084,-0.3447c-0.02255,0.079 -0.05773,0.15268 -0.10321,0.21871c0.05204,0.04196 0.10359,0.08407 0.15405,0.12599z" fill="#ffd8d8" fill-rule="nonzero" stroke="none" stroke-width="0.5" stroke-linecap="butt" stroke-linejoin="miter"/></g></g></svg>